<svg width="720" height="767" viewBox="0 0 720 767" fill="none" xmlns="http://www.w3.org/2000/svg">
<path d="M524.357 75.6248C594.091 111.964 668.668 142.852 699.661 195.544C730.654 249.144 719.031 324.547 711.283 396.317C704.503 467.178 700.629 534.405 674.479 596.181C649.297 657.958 599.902 714.283 537.916 741.537C475.93 768.792 399.417 766.975 323.871 766.975C248.326 766.975 172.781 767.883 122.417 734.27C72.0534 699.748 47.8402 631.612 30.4066 569.836C12.9731 508.968 2.31926 454.459 0.382196 399.042C-1.55486 343.625 3.2878 286.391 28.4696 236.425C53.6514 187.367 97.2352 144.669 149.536 98.3367C201.836 52.9129 262.854 3.85525 325.808 0.221342C389.731 -3.41256 454.623 38.3773 524.357 75.6248Z" fill="url(#paint0_linear_41_15)"/>
<defs>
<linearGradient id="paint0_linear_41_15" x1="0" y1="767" x2="765.469" y2="48.4372" gradientUnits="userSpaceOnUse">
<stop stop-color="#05C46B"/>
<stop offset="1" stop-color="#05C46B"/>
</linearGradient>
</defs>
</svg>
